<svg width="38" height="38" viewBox="0 0 38 38" fill="none" xmlns="http://www.w3.org/2000/svg">
<path fill-rule="evenodd" clip-rule="evenodd" d="M19.3355 7.59733C19.3355 7.6263 19.359 7.64979 19.388 7.64979L26.9988 7.64979C27.0223 7.64979 27.0452 7.64254 27.0644 7.62903C27.1038 7.60136 27.1564 7.60136 27.1958 7.62903L37.7995 15.0772C37.8111 15.0853 37.8111 15.1025 37.7995 15.1106C37.7879 15.1187 37.7879 15.1359 37.7995 15.144C37.8111 15.1521 37.8111 15.1693 37.7995 15.1774L37.79 15.1841C37.7731 15.196 37.7815 15.2225 37.8021 15.2225C37.8138 15.2225 37.8232 15.232 37.8232 15.2437V29.3351C37.8232 29.3354 37.8232 29.3355 37.823 29.3357C37.8229 29.3358 37.8228 29.336 37.8228 29.3362V29.733C37.8228 29.7571 37.8031 29.7766 37.779 29.7766C37.7367 29.7766 37.7188 29.831 37.7534 29.8553C37.778 29.8725 37.778 29.9089 37.7534 29.9261L27.1212 37.3943C27.1149 37.3987 27.1065 37.3987 27.1001 37.3943C27.0974 37.3924 27.0943 37.3912 27.091 37.391C27.0906 37.391 27.0901 37.3909 27.0896 37.3909H18.5765C18.5526 37.3909 18.5332 37.3715 18.5332 37.3476C18.5332 37.3236 18.5137 37.3042 18.4898 37.3042H10.7994C10.7956 37.3042 10.7919 37.3053 10.7887 37.3075C10.7823 37.312 10.7738 37.312 10.7674 37.3075L0.0854373 29.8273C0.0795787 29.8232 0.0795786 29.8145 0.0854371 29.8104C0.0936891 29.8046 0.0896001 29.7917 0.0795258 29.7917H0.068339C0.0606994 29.7917 0.0545056 29.7855 0.0545056 29.7778V23.9731C0.0545056 23.8674 0.140185 23.7817 0.245876 23.7817H7.7695C7.95659 23.7817 8.03252 23.5409 7.87927 23.4336L0.0855323 17.9759C0.0797169 17.9718 0.0797168 17.9632 0.0855322 17.9592C0.0937236 17.9534 0.0896649 17.9405 0.0796648 17.9405H0.0684524C0.0608505 17.9405 0.054688 17.9344 0.054688 17.9268L0.0546872 12.122C0.0546872 12.0163 0.140367 11.9306 0.246058 11.9306L7.73926 11.9306C7.92635 11.9306 8.00228 11.6898 7.84903 11.5825L0.122339 6.17173C0.108198 6.16183 0.0965377 6.14852 0.0848775 6.13521C0.0732173 6.1219 0.0615572 6.1086 0.0474161 6.09869L0.0468132 6.09827C0.0454584 6.09732 0.0454589 6.09532 0.0468136 6.09437C0.048722 6.09303 0.0477764 6.09003 0.0454467 6.09003H0.0318254C0.0281372 6.09003 0.0251465 6.08704 0.0251465 6.08336V0.175764C0.0251465 0.122918 0.0679861 0.0800781 0.120832 0.0800781H8.60088C8.60456 0.0800781 8.60755 0.0830679 8.60755 0.0867559C8.60755 0.092159 8.61364 0.0953252 8.61806 0.0922259L8.62814 0.0851661C8.63265 0.0820106 8.63865 0.0820106 8.64315 0.085166L19.3329 7.57084C19.3365 7.57337 19.3365 7.57871 19.3329 7.58123L19.3283 7.58447C19.3247 7.58703 19.3265 7.59277 19.3309 7.59277C19.3335 7.59277 19.3355 7.59481 19.3355 7.59733ZM18.5288 13.6649C18.5288 13.6306 18.501 13.6027 18.4666 13.6027L11.6306 13.6027C11.4435 13.6027 11.3676 13.8435 11.5209 13.9508L19.3651 19.4439L19.3664 19.4448C19.3681 19.446 19.3681 19.4485 19.3664 19.4497C19.3662 19.4499 19.366 19.45 19.3658 19.4502C19.3654 19.4507 19.3651 19.4514 19.3651 19.4522V25.2625C19.3651 25.3682 19.2794 25.4538 19.1737 25.4538H11.6302C11.4431 25.4538 11.3671 25.6947 11.5204 25.802L18.8917 30.9639C18.9577 31.0101 19.0456 31.01 19.1115 30.9637L29.2155 23.8666C29.2191 23.864 29.2239 23.864 29.2275 23.8666C29.2344 23.8714 29.2439 23.8665 29.2439 23.858L29.2439 21.1896C29.2439 21.1885 29.2426 21.1878 29.2417 21.1885C29.2412 21.1888 29.2406 21.1888 29.2401 21.1885L18.5506 13.6801C18.5498 13.6795 18.5495 13.6787 18.5495 13.6779C18.5496 13.6772 18.5499 13.6765 18.5506 13.6761C18.5525 13.6747 18.5515 13.6717 18.5492 13.6717H18.5355C18.5318 13.6717 18.5288 13.6686 18.5288 13.6649Z" fill="#1B1B1B"/>
</svg>
